<svg xmlns="http://www.w3.org/2000/svg" width="1800" height="1400" viewBox="0 0 1800 1400">
  <defs>
    <marker id="arrow" markerWidth="10" markerHeight="10" refX="10" refY="3" orient="auto" markerUnits="strokeWidth">
      <path d="M0,0 L0,6 L9,3 z" />
    </marker>
    <style><![CDATA[
      .node { fill: #ffffff; stroke: #111827; stroke-width: 1; }
      .label { font: 14px/1.2 system-ui, -apple-system, Segoe UI, Roboto, Arial; fill: #111827; text-anchor: middle; dominant-baseline: central; }
      .grouplabel { font: 12px/1.2 system-ui, -apple-system, Segoe UI, Roboto, Arial; fill: #6b7280; }
      .edge { fill: none; stroke: #111827; stroke-width: 1.8; marker-end: url(#arrow); stroke-dasharray: 6 6; animation: flow 2.6s linear infinite; }
      .cross { stroke-dasharray: 2 8; stroke-opacity: 0.9; animation: flowFast 1.3s linear infinite; }
      .bold { stroke-width: 3; stroke-dasharray: 10 6; animation: flowBold 1.6s linear infinite; }
      @keyframes flow { to { stroke-dashoffset: -24; } }
      @keyframes flowFast { to { stroke-dashoffset: -20; } }
      @keyframes flowBold { to { stroke-dashoffset: -28; } }
      .rowbg { fill: #f9fafb; }
      .canvas { fill: #ffffff; }
    ]]></style>
  </defs>
  <rect class="canvas" x="0" y="0" width="100%" height="100%" />
<rect class="rowbg" x="0" y="22" width="1800" height="85" /><rect class="rowbg" x="0" y="192" width="1800" height="85" /><rect class="rowbg" x="0" y="362" width="1800" height="85" /><rect class="rowbg" x="0" y="532" width="1800" height="85" /><rect class="rowbg" x="0" y="702" width="1800" height="85" /><rect class="rowbg" x="0" y="872" width="1800" height="85" /><rect class="rowbg" x="0" y="1042" width="1800" height="85" /><text class="grouplabel" x="40" y="57.0">Line 1 (R→L)</text><text class="grouplabel" x="40" y="142.0">Line 2 (R→L)</text><text class="grouplabel" x="40" y="227.0">Line 3 (R→L)</text><text class="grouplabel" x="40" y="312.0">Line 4 (R→L)</text><text class="grouplabel" x="40" y="397.0">Line 5 (R→L)</text><text class="grouplabel" x="40" y="482.0">Line 6 (R→L)</text><text class="grouplabel" x="40" y="567.0">Line 7 (R→L)</text><text class="grouplabel" x="40" y="652.0">Line 8 (R→L)</text><text class="grouplabel" x="40" y="737.0">Line 9 (R→L)</text><text class="grouplabel" x="40" y="822.0">Line 10 (R→L)</text><text class="grouplabel" x="40" y="907.0">Line 11 (R→L)</text><text class="grouplabel" x="40" y="992.0">Line 12 (R→L)</text><text class="grouplabel" x="40" y="1077.0">Line 13 (R→L)</text><text class="grouplabel" x="40" y="1162.0">Line 14 (R→L)</text><path class="edge" d="M1135,57.0 L1025,57.0"/><path class="edge" d="M955,57.0 L845,57.0"/><path class="edge" d="M775,57.0 L665,57.0"/><path class="edge" d="M1045,142.0 L935,142.0"/><path class="edge" d="M865,142.0 L755,142.0"/><path class="edge" d="M1045,227.0 L935,227.0"/><path class="edge" d="M865,227.0 L755,227.0"/><path class="edge" d="M1045,312.0 L935,312.0"/><path class="edge" d="M865,312.0 L755,312.0"/><path class="edge" d="M1225,397.0 L1115,397.0"/><path class="edge" d="M1045,397.0 L935,397.0"/><path class="edge" d="M865,397.0 L755,397.0"/><path class="edge" d="M685,397.0 L575,397.0"/><path class="edge" d="M955,482.0 L845,482.0"/><path class="edge" d="M1315,567.0 L1205,567.0"/><path class="edge" d="M1135,567.0 L1025,567.0"/><path class="edge" d="M955,567.0 L845,567.0"/><path class="edge" d="M775,567.0 L665,567.0"/><path class="edge" d="M595,567.0 L485,567.0"/><path class="edge" d="M1045,652.0 L935,652.0"/><path class="edge" d="M865,652.0 L755,652.0"/><path class="edge" d="M1135,737.0 L1025,737.0"/><path class="edge" d="M955,737.0 L845,737.0"/><path class="edge" d="M775,737.0 L665,737.0"/><path class="edge" d="M1315,822.0 L1205,822.0"/><path class="edge" d="M1135,822.0 L1025,822.0"/><path class="edge" d="M955,822.0 L845,822.0"/><path class="edge" d="M775,822.0 L665,822.0"/><path class="edge" d="M595,822.0 L485,822.0"/><path class="edge" d="M1585,907.0 L1475,907.0"/><path class="edge" d="M1405,907.0 L1295,907.0"/><path class="edge" d="M1225,907.0 L1115,907.0"/><path class="edge" d="M1045,907.0 L935,907.0"/><path class="edge" d="M865,907.0 L755,907.0"/><path class="edge" d="M685,907.0 L575,907.0"/><path class="edge" d="M505,907.0 L395,907.0"/><path class="edge" d="M325,907.0 L215,907.0"/><path class="edge" d="M1045,992.0 L935,992.0"/><path class="edge" d="M865,992.0 L755,992.0"/><path class="edge" d="M1135,1077.0 L1025,1077.0"/><path class="edge" d="M955,1077.0 L845,1077.0"/><path class="edge" d="M775,1077.0 L665,1077.0"/><path class="edge" d="M955,1162.0 L845,1162.0"/><path class="edge cross" d="M990.0,550 C1080.0,454.8 1080.0,169.2 1170.0,74"/><path class="edge cross" d="M720.0,975 C900.0,811.8 900.0,322.20000000000005 1080.0,159"/><path class="edge cross" d="M810.0,550 C945.0,488.8 945.0,305.2 1080.0,244"/><path class="edge cross" d="M1080.0,890 C1080.0,777.8 1080.0,441.2 1080.0,329"/><path class="edge cross" d="M1260.0,890 C1260.0,794.8 1260.0,509.2 1260.0,414"/><path class="edge cross" d="M990.0,550 C990.0,539.8 990.0,509.2 990.0,499"/><path class="edge cross" d="M630.0,550 C990.0,556.8 990.0,577.2 1350.0,584"/><path class="edge cross" d="M450.0,550 C765.0,573.8 765.0,645.2 1080.0,669"/><path class="edge cross" d="M810.0,1060 C990.0,998.8 990.0,815.2 1170.0,754"/><path class="edge cross" d="M630.0,1060 C990.0,1015.8 990.0,883.2 1350.0,839"/><path class="edge cross" d="M900.0,380 C1260.0,488.8 1260.0,815.2 1620.0,924"/><path class="edge cross" d="M720.0,380 C900.0,505.8 900.0,883.2 1080.0,1009"/><path class="edge cross" d="M1080.0,380 C1125.0,522.8 1125.0,951.2 1170.0,1094"/><path class="edge cross" d="M810.0,465 C900.0,607.8 900.0,1036.2 990.0,1179"/><path class="edge bold" d="M810.0,1145 C675.0,998.8 675.0,560.2 540.0,414"/><rect class="node" x="595" y="40" rx="10" ry="10" width="70" height="34"/><text class="label" x="630.0" y="57.0">a</text><rect class="node" x="775" y="40" rx="10" ry="10" width="70" height="34"/><text class="label" x="810.0" y="57.0">i</text><rect class="node" x="955" y="40" rx="10" ry="10" width="70" height="34"/><text class="label" x="990.0" y="57.0">u</text><rect class="node" x="1135" y="40" rx="10" ry="10" width="70" height="34"/><text class="label" x="1170.0" y="57.0">Ṇ</text><rect class="node" x="685" y="125" rx="10" ry="10" width="70" height="34"/><text class="label" x="720.0" y="142.0">ṛ</text><rect class="node" x="865" y="125" rx="10" ry="10" width="70" height="34"/><text class="label" x="900.0" y="142.0">ḷ</text><rect class="node" x="1045" y="125" rx="10" ry="10" width="70" height="34"/><text class="label" x="1080.0" y="142.0">K</text><rect class="node" x="685" y="210" rx="10" ry="10" width="70" height="34"/><text class="label" x="720.0" y="227.0">e</text><rect class="node" x="865" y="210" rx="10" ry="10" width="70" height="34"/><text class="label" x="900.0" y="227.0">o</text><rect class="node" x="1045" y="210" rx="10" ry="10" width="70" height="34"/><text class="label" x="1080.0" y="227.0">Ṅ</text><rect class="node" x="685" y="295" rx="10" ry="10" width="70" height="34"/><text class="label" x="720.0" y="312.0">ai</text><rect class="node" x="865" y="295" rx="10" ry="10" width="70" height="34"/><text class="label" x="900.0" y="312.0">au</text><rect class="node" x="1045" y="295" rx="10" ry="10" width="70" height="34"/><text class="label" x="1080.0" y="312.0">C</text><rect class="node" x="505" y="380" rx="10" ry="10" width="70" height="34"/><text class="label" x="540.0" y="397.0">ha</text><rect class="node" x="685" y="380" rx="10" ry="10" width="70" height="34"/><text class="label" x="720.0" y="397.0">ya</text><rect class="node" x="865" y="380" rx="10" ry="10" width="70" height="34"/><text class="label" x="900.0" y="397.0">va</text><rect class="node" x="1045" y="380" rx="10" ry="10" width="70" height="34"/><text class="label" x="1080.0" y="397.0">ra</text><rect class="node" x="1225" y="380" rx="10" ry="10" width="70" height="34"/><text class="label" x="1260.0" y="397.0">Ṭ</text><rect class="node" x="775" y="465" rx="10" ry="10" width="70" height="34"/><text class="label" x="810.0" y="482.0">la</text><rect class="node" x="955" y="465" rx="10" ry="10" width="70" height="34"/><text class="label" x="990.0" y="482.0">Ṇ</text><rect class="node" x="415" y="550" rx="10" ry="10" width="70" height="34"/><text class="label" x="450.0" y="567.0">ña</text><rect class="node" x="595" y="550" rx="10" ry="10" width="70" height="34"/><text class="label" x="630.0" y="567.0">ma</text><rect class="node" x="775" y="550" rx="10" ry="10" width="70" height="34"/><text class="label" x="810.0" y="567.0">ṅa</text><rect class="node" x="955" y="550" rx="10" ry="10" width="70" height="34"/><text class="label" x="990.0" y="567.0">ṇa</text><rect class="node" x="1135" y="550" rx="10" ry="10" width="70" height="34"/><text class="label" x="1170.0" y="567.0">na</text><rect class="node" x="1315" y="550" rx="10" ry="10" width="70" height="34"/><text class="label" x="1350.0" y="567.0">M</text><rect class="node" x="685" y="635" rx="10" ry="10" width="70" height="34"/><text class="label" x="720.0" y="652.0">jha</text><rect class="node" x="865" y="635" rx="10" ry="10" width="70" height="34"/><text class="label" x="900.0" y="652.0">bha</text><rect class="node" x="1045" y="635" rx="10" ry="10" width="70" height="34"/><text class="label" x="1080.0" y="652.0">Ñ</text><rect class="node" x="595" y="720" rx="10" ry="10" width="70" height="34"/><text class="label" x="630.0" y="737.0">gha</text><rect class="node" x="775" y="720" rx="10" ry="10" width="70" height="34"/><text class="label" x="810.0" y="737.0">ḍha</text><rect class="node" x="955" y="720" rx="10" ry="10" width="70" height="34"/><text class="label" x="990.0" y="737.0">dha</text><rect class="node" x="1135" y="720" rx="10" ry="10" width="70" height="34"/><text class="label" x="1170.0" y="737.0">Ṣ</text><rect class="node" x="415" y="805" rx="10" ry="10" width="70" height="34"/><text class="label" x="450.0" y="822.0">ja</text><rect class="node" x="595" y="805" rx="10" ry="10" width="70" height="34"/><text class="label" x="630.0" y="822.0">ba</text><rect class="node" x="775" y="805" rx="10" ry="10" width="70" height="34"/><text class="label" x="810.0" y="822.0">ga</text><rect class="node" x="955" y="805" rx="10" ry="10" width="70" height="34"/><text class="label" x="990.0" y="822.0">ḍa</text><rect class="node" x="1135" y="805" rx="10" ry="10" width="70" height="34"/><text class="label" x="1170.0" y="822.0">da</text><rect class="node" x="1315" y="805" rx="10" ry="10" width="70" height="34"/><text class="label" x="1350.0" y="822.0">Ś</text><rect class="node" x="145" y="890" rx="10" ry="10" width="70" height="34"/><text class="label" x="180.0" y="907.0">kha</text><rect class="node" x="325" y="890" rx="10" ry="10" width="70" height="34"/><text class="label" x="360.0" y="907.0">pha</text><rect class="node" x="505" y="890" rx="10" ry="10" width="70" height="34"/><text class="label" x="540.0" y="907.0">cha</text><rect class="node" x="685" y="890" rx="10" ry="10" width="70" height="34"/><text class="label" x="720.0" y="907.0">ṭha</text><rect class="node" x="865" y="890" rx="10" ry="10" width="70" height="34"/><text class="label" x="900.0" y="907.0">tha</text><rect class="node" x="1045" y="890" rx="10" ry="10" width="70" height="34"/><text class="label" x="1080.0" y="907.0">ca</text><rect class="node" x="1225" y="890" rx="10" ry="10" width="70" height="34"/><text class="label" x="1260.0" y="907.0">ṭa</text><rect class="node" x="1405" y="890" rx="10" ry="10" width="70" height="34"/><text class="label" x="1440.0" y="907.0">ta</text><rect class="node" x="1585" y="890" rx="10" ry="10" width="70" height="34"/><text class="label" x="1620.0" y="907.0">V</text><rect class="node" x="685" y="975" rx="10" ry="10" width="70" height="34"/><text class="label" x="720.0" y="992.0">ka</text><rect class="node" x="865" y="975" rx="10" ry="10" width="70" height="34"/><text class="label" x="900.0" y="992.0">pa</text><rect class="node" x="1045" y="975" rx="10" ry="10" width="70" height="34"/><text class="label" x="1080.0" y="992.0">Y</text><rect class="node" x="595" y="1060" rx="10" ry="10" width="70" height="34"/><text class="label" x="630.0" y="1077.0">śa</text><rect class="node" x="775" y="1060" rx="10" ry="10" width="70" height="34"/><text class="label" x="810.0" y="1077.0">ṣa</text><rect class="node" x="955" y="1060" rx="10" ry="10" width="70" height="34"/><text class="label" x="990.0" y="1077.0">sa</text><rect class="node" x="1135" y="1060" rx="10" ry="10" width="70" height="34"/><text class="label" x="1170.0" y="1077.0">R</text><rect class="node" x="775" y="1145" rx="10" ry="10" width="70" height="34"/><text class="label" x="810.0" y="1162.0">ha</text><rect class="node" x="955" y="1145" rx="10" ry="10" width="70" height="34"/><text class="label" x="990.0" y="1162.0">L</text></svg>