<svg xmlns="http://www.w3.org/2000/svg" width="1280" height="720" viewBox="0 0 1280 720">
  <defs>
    <marker id="arrowGreen" viewBox="0 0 10 10" refX="10" refY="5" markerWidth="8" markerHeight="8" orient="auto-start-reverse">
      <path d="M0 0 L10 5 L0 10Z" fill="#16a34a"/>
    </marker>
    <marker id="arrowRed" viewBox="0 0 10 10" refX="10" refY="5" markerWidth="8" markerHeight="8" orient="auto-start-reverse">
      <path d="M0 0 L10 5 L0 10Z" fill="#dc2626"/>
    </marker>
    <style>
      .title{font:700 26px/1.2 system-ui,-apple-system,Segoe UI,Roboto,sans-serif;fill:#111827}
      .subtitle{font:600 14px/1.2 system-ui;fill:#6b7280}
      .legend{font:600 13px/1.2 system-ui;fill:#111827}
      .panel{fill:#ffffff;stroke:#e5e7eb;stroke-width:1}
      .node text.a{font:700 12px ui-sans-serif;fill:#111827}
      .node text.b{font:600 11px ui-sans-serif;fill:#6b7280}
      .node circle{fill:#fff;stroke:#111827;stroke-width:1.1}
      .edgeP{stroke:#16a34a;fill:none;stroke-width:1.8;stroke-dasharray:6 8;animation:flowP 2.4s linear infinite}
      .edgeN{stroke:#dc2626;fill:none;stroke-width:1.8;stroke-dasharray:6 8;animation:flowN 2.4s linear infinite}
      .field{stroke:#2563eb;fill:none;stroke-width:2;stroke-dasharray:10 10;opacity:.7;animation:wave 3s linear infinite}
      .fieldHL{stroke:#2563eb;fill:none;stroke-width:4.2;opacity:.6}
      .star{fill:#f59e0b;stroke:#00000080;stroke-width:.6;animation:twinkle 1.8s ease-in-out infinite; transform-box: fill-box; transform-origin: center}
      @keyframes flowP{from{stroke-dashoffset:0}to{stroke-dashoffset:-28}}
      @keyframes flowN{from{stroke-dashoffset:0}to{stroke-dashoffset: 28}}
      @keyframes wave {from{stroke-dashoffset:0}to{stroke-dashoffset:-80}}
      @keyframes twinkle{0%,100%{opacity:.9;transform:scale(1)}50%{opacity:1;transform:scale(1.15)}}
    </style>
  </defs>
  <rect x="0" y="0" width="1280" height="720" fill="#ffffff"/>
<text class="title" x="640.0" y="60" text-anchor="middle">Param Tatva: Particle &amp; Field Generation from ± Flows</text><text class="subtitle" x="640.0" y="86" text-anchor="middle">Positive (green) meets Negative (red) → particles (stars) &amp; fields (waves)</text><rect class="panel" x="565.0" y="14.0" width="600.0" height="68.0" rx="12"/><rect class="panel" x="655.0" y="99.0" width="420.0" height="68.0" rx="12"/><rect class="panel" x="655.0" y="184.0" width="420.0" height="68.0" rx="12"/><rect class="panel" x="655.0" y="269.0" width="420.0" height="68.0" rx="12"/><rect class="panel" x="475.0" y="354.0" width="780.0" height="68.0" rx="12"/><rect class="panel" x="745.0" y="439.0" width="240.0" height="68.0" rx="12"/><rect class="panel" x="385.0" y="524.0" width="960.0" height="68.0" rx="12"/><rect class="panel" x="655.0" y="609.0" width="420.0" height="68.0" rx="12"/><rect class="panel" x="565.0" y="694.0" width="600.0" height="68.0" rx="12"/><rect class="panel" x="385.0" y="779.0" width="960.0" height="68.0" rx="12"/><rect class="panel" x="115.0" y="864.0" width="1500.0" height="68.0" rx="12"/><rect class="panel" x="655.0" y="949.0" width="420.0" height="68.0" rx="12"/><rect class="panel" x="565.0" y="1034.0" width="600.0" height="68.0" rx="12"/><rect class="panel" x="745.0" y="1119.0" width="240.0" height="68.0" rx="12"/><path class="edgeP" d="M 595.0 40.0 C 658.0 52.0, 712.0 52.0, 775.0 40.0" marker-end="url(#arrowGreen)"/><path class="edgeP" d="M 775.0 40.0 C 838.0 52.0, 892.0 52.0, 955.0 40.0" marker-end="url(#arrowGreen)"/><path class="edgeP" d="M 955.0 40.0 C 1018.0 52.0, 1072.0 52.0, 1135.0 40.0" marker-end="url(#arrowGreen)"/><path class="edgeN" d="M 1135.0 40.0 C 1072.0 52.0, 1018.0 52.0, 955.0 40.0" marker-end="url(#arrowRed)"/><path class="edgeN" d="M 955.0 40.0 C 892.0 52.0, 838.0 52.0, 775.0 40.0" marker-end="url(#arrowRed)"/><path class="edgeN" d="M 775.0 40.0 C 712.0 52.0, 658.0 52.0, 595.0 40.0" marker-end="url(#arrowRed)"/><path class="edgeP" d="M 685.0 125.0 C 748.0 137.0, 802.0 137.0, 865.0 125.0" marker-end="url(#arrowGreen)"/><path class="edgeP" d="M 865.0 125.0 C 928.0 137.0, 982.0 137.0, 1045.0 125.0" marker-end="url(#arrowGreen)"/><path class="edgeN" d="M 1045.0 125.0 C 982.0 137.0, 928.0 137.0, 865.0 125.0" marker-end="url(#arrowRed)"/><path class="edgeN" d="M 865.0 125.0 C 802.0 137.0, 748.0 137.0, 685.0 125.0" marker-end="url(#arrowRed)"/><path class="edgeP" d="M 685.0 210.0 C 748.0 222.0, 802.0 222.0, 865.0 210.0" marker-end="url(#arrowGreen)"/><path class="edgeP" d="M 865.0 210.0 C 928.0 222.0, 982.0 222.0, 1045.0 210.0" marker-end="url(#arrowGreen)"/><path class="edgeN" d="M 1045.0 210.0 C 982.0 222.0, 928.0 222.0, 865.0 210.0" marker-end="url(#arrowRed)"/><path class="edgeN" d="M 865.0 210.0 C 802.0 222.0, 748.0 222.0, 685.0 210.0" marker-end="url(#arrowRed)"/><path class="edgeP" d="M 685.0 295.0 C 748.0 307.0, 802.0 307.0, 865.0 295.0" marker-end="url(#arrowGreen)"/><path class="edgeP" d="M 865.0 295.0 C 928.0 307.0, 982.0 307.0, 1045.0 295.0" marker-end="url(#arrowGreen)"/><path class="edgeN" d="M 1045.0 295.0 C 982.0 307.0, 928.0 307.0, 865.0 295.0" marker-end="url(#arrowRed)"/><path class="edgeN" d="M 865.0 295.0 C 802.0 307.0, 748.0 307.0, 685.0 295.0" marker-end="url(#arrowRed)"/><path class="edgeP" d="M 505.0 380.0 C 568.0 392.0, 622.0 392.0, 685.0 380.0" marker-end="url(#arrowGreen)"/><path class="edgeP" d="M 685.0 380.0 C 748.0 392.0, 802.0 392.0, 865.0 380.0" marker-end="url(#arrowGreen)"/><path class="edgeP" d="M 865.0 380.0 C 928.0 392.0, 982.0 392.0, 1045.0 380.0" marker-end="url(#arrowGreen)"/><path class="edgeP" d="M 1045.0 380.0 C 1108.0 392.0, 1162.0 392.0, 1225.0 380.0" marker-end="url(#arrowGreen)"/><path class="edgeN" d="M 1225.0 380.0 C 1162.0 392.0, 1108.0 392.0, 1045.0 380.0" marker-end="url(#arrowRed)"/><path class="edgeN" d="M 1045.0 380.0 C 982.0 392.0, 928.0 392.0, 865.0 380.0" marker-end="url(#arrowRed)"/><path class="edgeN" d="M 865.0 380.0 C 802.0 392.0, 748.0 392.0, 685.0 380.0" marker-end="url(#arrowRed)"/><path class="edgeN" d="M 685.0 380.0 C 622.0 392.0, 568.0 392.0, 505.0 380.0" marker-end="url(#arrowRed)"/><path class="edgeP" d="M 775.0 465.0 C 838.0 477.0, 892.0 477.0, 955.0 465.0" marker-end="url(#arrowGreen)"/><path class="edgeN" d="M 955.0 465.0 C 892.0 477.0, 838.0 477.0, 775.0 465.0" marker-end="url(#arrowRed)"/><path class="edgeP" d="M 415.0 550.0 C 478.0 562.0, 532.0 562.0, 595.0 550.0" marker-end="url(#arrowGreen)"/><path class="edgeP" d="M 595.0 550.0 C 658.0 562.0, 712.0 562.0, 775.0 550.0" marker-end="url(#arrowGreen)"/><path class="edgeP" d="M 775.0 550.0 C 838.0 562.0, 892.0 562.0, 955.0 550.0" marker-end="url(#arrowGreen)"/><path class="edgeP" d="M 955.0 550.0 C 1018.0 562.0, 1072.0 562.0, 1135.0 550.0" marker-end="url(#arrowGreen)"/><path class="edgeP" d="M 1135.0 550.0 C 1198.0 562.0, 1252.0 562.0, 1315.0 550.0" marker-end="url(#arrowGreen)"/><path class="edgeN" d="M 1315.0 550.0 C 1252.0 562.0, 1198.0 562.0, 1135.0 550.0" marker-end="url(#arrowRed)"/><path class="edgeN" d="M 1135.0 550.0 C 1072.0 562.0, 1018.0 562.0, 955.0 550.0" marker-end="url(#arrowRed)"/><path class="edgeN" d="M 955.0 550.0 C 892.0 562.0, 838.0 562.0, 775.0 550.0" marker-end="url(#arrowRed)"/><path class="edgeN" d="M 775.0 550.0 C 712.0 562.0, 658.0 562.0, 595.0 550.0" marker-end="url(#arrowRed)"/><path class="edgeN" d="M 595.0 550.0 C 532.0 562.0, 478.0 562.0, 415.0 550.0" marker-end="url(#arrowRed)"/><path class="edgeP" d="M 685.0 635.0 C 748.0 647.0, 802.0 647.0, 865.0 635.0" marker-end="url(#arrowGreen)"/><path class="edgeP" d="M 865.0 635.0 C 928.0 647.0, 982.0 647.0, 1045.0 635.0" marker-end="url(#arrowGreen)"/><path class="edgeN" d="M 1045.0 635.0 C 982.0 647.0, 928.0 647.0, 865.0 635.0" marker-end="url(#arrowRed)"/><path class="edgeN" d="M 865.0 635.0 C 802.0 647.0, 748.0 647.0, 685.0 635.0" marker-end="url(#arrowRed)"/><path class="edgeP" d="M 595.0 720.0 C 658.0 732.0, 712.0 732.0, 775.0 720.0" marker-end="url(#arrowGreen)"/><path class="edgeP" d="M 775.0 720.0 C 838.0 732.0, 892.0 732.0, 955.0 720.0" marker-end="url(#arrowGreen)"/><path class="edgeP" d="M 955.0 720.0 C 1018.0 732.0, 1072.0 732.0, 1135.0 720.0" marker-end="url(#arrowGreen)"/><path class="edgeN" d="M 1135.0 720.0 C 1072.0 732.0, 1018.0 732.0, 955.0 720.0" marker-end="url(#arrowRed)"/><path class="edgeN" d="M 955.0 720.0 C 892.0 732.0, 838.0 732.0, 775.0 720.0" marker-end="url(#arrowRed)"/><path class="edgeN" d="M 775.0 720.0 C 712.0 732.0, 658.0 732.0, 595.0 720.0" marker-end="url(#arrowRed)"/><path class="edgeP" d="M 415.0 805.0 C 478.0 817.0, 532.0 817.0, 595.0 805.0" marker-end="url(#arrowGreen)"/><path class="edgeP" d="M 595.0 805.0 C 658.0 817.0, 712.0 817.0, 775.0 805.0" marker-end="url(#arrowGreen)"/><path class="edgeP" d="M 775.0 805.0 C 838.0 817.0, 892.0 817.0, 955.0 805.0" marker-end="url(#arrowGreen)"/><path class="edgeP" d="M 955.0 805.0 C 1018.0 817.0, 1072.0 817.0, 1135.0 805.0" marker-end="url(#arrowGreen)"/><path class="edgeP" d="M 1135.0 805.0 C 1198.0 817.0, 1252.0 817.0, 1315.0 805.0" marker-end="url(#arrowGreen)"/><path class="edgeN" d="M 1315.0 805.0 C 1252.0 817.0, 1198.0 817.0, 1135.0 805.0" marker-end="url(#arrowRed)"/><path class="edgeN" d="M 1135.0 805.0 C 1072.0 817.0, 1018.0 817.0, 955.0 805.0" marker-end="url(#arrowRed)"/><path class="edgeN" d="M 955.0 805.0 C 892.0 817.0, 838.0 817.0, 775.0 805.0" marker-end="url(#arrowRed)"/><path class="edgeN" d="M 775.0 805.0 C 712.0 817.0, 658.0 817.0, 595.0 805.0" marker-end="url(#arrowRed)"/><path class="edgeN" d="M 595.0 805.0 C 532.0 817.0, 478.0 817.0, 415.0 805.0" marker-end="url(#arrowRed)"/><path class="edgeP" d="M 145.0 890.0 C 208.0 902.0, 262.0 902.0, 325.0 890.0" marker-end="url(#arrowGreen)"/><path class="edgeP" d="M 325.0 890.0 C 388.0 902.0, 442.0 902.0, 505.0 890.0" marker-end="url(#arrowGreen)"/><path class="edgeP" d="M 505.0 890.0 C 568.0 902.0, 622.0 902.0, 685.0 890.0" marker-end="url(#arrowGreen)"/><path class="edgeP" d="M 685.0 890.0 C 748.0 902.0, 802.0 902.0, 865.0 890.0" marker-end="url(#arrowGreen)"/><path class="edgeP" d="M 865.0 890.0 C 928.0 902.0, 982.0 902.0, 1045.0 890.0" marker-end="url(#arrowGreen)"/><path class="edgeP" d="M 1045.0 890.0 C 1108.0 902.0, 1162.0 902.0, 1225.0 890.0" marker-end="url(#arrowGreen)"/><path class="edgeP" d="M 1225.0 890.0 C 1288.0 902.0, 1342.0 902.0, 1405.0 890.0" marker-end="url(#arrowGreen)"/><path class="edgeP" d="M 1405.0 890.0 C 1468.0 902.0, 1522.0 902.0, 1585.0 890.0" marker-end="url(#arrowGreen)"/><path class="edgeN" d="M 1585.0 890.0 C 1522.0 902.0, 1468.0 902.0, 1405.0 890.0" marker-end="url(#arrowRed)"/><path class="edgeN" d="M 1405.0 890.0 C 1342.0 902.0, 1288.0 902.0, 1225.0 890.0" marker-end="url(#arrowRed)"/><path class="edgeN" d="M 1225.0 890.0 C 1162.0 902.0, 1108.0 902.0, 1045.0 890.0" marker-end="url(#arrowRed)"/><path class="edgeN" d="M 1045.0 890.0 C 982.0 902.0, 928.0 902.0, 865.0 890.0" marker-end="url(#arrowRed)"/><path class="edgeN" d="M 865.0 890.0 C 802.0 902.0, 748.0 902.0, 685.0 890.0" marker-end="url(#arrowRed)"/><path class="edgeN" d="M 685.0 890.0 C 622.0 902.0, 568.0 902.0, 505.0 890.0" marker-end="url(#arrowRed)"/><path class="edgeN" d="M 505.0 890.0 C 442.0 902.0, 388.0 902.0, 325.0 890.0" marker-end="url(#arrowRed)"/><path class="edgeN" d="M 325.0 890.0 C 262.0 902.0, 208.0 902.0, 145.0 890.0" marker-end="url(#arrowRed)"/><path class="edgeP" d="M 685.0 975.0 C 748.0 987.0, 802.0 987.0, 865.0 975.0" marker-end="url(#arrowGreen)"/><path class="edgeP" d="M 865.0 975.0 C 928.0 987.0, 982.0 987.0, 1045.0 975.0" marker-end="url(#arrowGreen)"/><path class="edgeN" d="M 1045.0 975.0 C 982.0 987.0, 928.0 987.0, 865.0 975.0" marker-end="url(#arrowRed)"/><path class="edgeN" d="M 865.0 975.0 C 802.0 987.0, 748.0 987.0, 685.0 975.0" marker-end="url(#arrowRed)"/><path class="edgeP" d="M 595.0 1060.0 C 658.0 1072.0, 712.0 1072.0, 775.0 1060.0" marker-end="url(#arrowGreen)"/><path class="edgeP" d="M 775.0 1060.0 C 838.0 1072.0, 892.0 1072.0, 955.0 1060.0" marker-end="url(#arrowGreen)"/><path class="edgeP" d="M 955.0 1060.0 C 1018.0 1072.0, 1072.0 1072.0, 1135.0 1060.0" marker-end="url(#arrowGreen)"/><path class="edgeN" d="M 1135.0 1060.0 C 1072.0 1072.0, 1018.0 1072.0, 955.0 1060.0" marker-end="url(#arrowRed)"/><path class="edgeN" d="M 955.0 1060.0 C 892.0 1072.0, 838.0 1072.0, 775.0 1060.0" marker-end="url(#arrowRed)"/><path class="edgeN" d="M 775.0 1060.0 C 712.0 1072.0, 658.0 1072.0, 595.0 1060.0" marker-end="url(#arrowRed)"/><path class="edgeP" d="M 775.0 1145.0 C 838.0 1157.0, 892.0 1157.0, 955.0 1145.0" marker-end="url(#arrowGreen)"/><path class="edgeN" d="M 955.0 1145.0 C 892.0 1157.0, 838.0 1157.0, 775.0 1145.0" marker-end="url(#arrowRed)"/><path class="edgeP" d="M 1135.0 40.0 C 1060.7 214.5, 1006.7 367.5, 955.0 550.0" marker-end="url(#arrowGreen)"/><path class="edgeN" d="M 955.0 550.0 C 1006.7 367.5, 1060.7 214.5, 1135.0 40.0" marker-end="url(#arrowRed)"/><path class="edgeP" d="M 1045.0 125.0 C 908.0 417.8, 800.0 672.8, 685.0 975.0" marker-end="url(#arrowGreen)"/><path class="edgeN" d="M 685.0 975.0 C 800.0 672.8, 908.0 417.8, 1045.0 125.0" marker-end="url(#arrowRed)"/><path class="edgeP" d="M 1045.0 210.0 C 941.1 321.5, 860.1 423.5, 775.0 550.0" marker-end="url(#arrowGreen)"/><path class="edgeN" d="M 775.0 550.0 C 860.1 423.5, 941.1 321.5, 1045.0 210.0" marker-end="url(#arrowRed)"/><path class="edgeP" d="M 1045.0 295.0 C 1033.0 503.2, 1033.0 681.8, 1045.0 890.0" marker-end="url(#arrowGreen)"/><path class="edgeN" d="M 1045.0 890.0 C 1033.0 681.8, 1033.0 503.2, 1045.0 295.0" marker-end="url(#arrowRed)"/><path class="edgeP" d="M 1225.0 380.0 C 1213.0 558.5, 1213.0 711.5, 1225.0 890.0" marker-end="url(#arrowGreen)"/><path class="edgeN" d="M 1225.0 890.0 C 1213.0 711.5, 1213.0 558.5, 1225.0 380.0" marker-end="url(#arrowRed)"/><path class="edgeP" d="M 955.0 465.0 C 943.0 494.8, 943.0 520.2, 955.0 550.0" marker-end="url(#arrowGreen)"/><path class="edgeN" d="M 955.0 550.0 C 943.0 520.2, 943.0 494.8, 955.0 465.0" marker-end="url(#arrowRed)"/><path class="edgeP" d="M 1315.0 550.0 C 1063.0 538.0, 847.0 538.0, 595.0 550.0" marker-end="url(#arrowGreen)"/><path class="edgeN" d="M 595.0 550.0 C 847.0 538.0, 1063.0 538.0, 1315.0 550.0" marker-end="url(#arrowRed)"/><path class="edgeP" d="M 1045.0 635.0 C 826.1 593.4, 637.1 567.9, 415.0 550.0" marker-end="url(#arrowGreen)"/><path class="edgeN" d="M 415.0 550.0 C 637.1 567.9, 826.1 593.4, 1045.0 635.0" marker-end="url(#arrowRed)"/><path class="edgeP" d="M 1135.0 720.0 C 1000.8 830.3, 892.8 932.3, 775.0 1060.0" marker-end="url(#arrowGreen)"/><path class="edgeN" d="M 775.0 1060.0 C 892.8 932.3, 1000.8 830.3, 1135.0 720.0" marker-end="url(#arrowRed)"/><path class="edgeP" d="M 1315.0 805.0 C 1059.0 882.9, 843.0 959.4, 595.0 1060.0" marker-end="url(#arrowGreen)"/><path class="edgeN" d="M 595.0 1060.0 C 843.0 959.4, 1059.0 882.9, 1315.0 805.0" marker-end="url(#arrowRed)"/><path class="edgeP" d="M 1585.0 890.0 C 1339.9 701.7, 1123.9 548.7, 865.0 380.0" marker-end="url(#arrowGreen)"/><path class="edgeN" d="M 865.0 380.0 C 1123.9 548.7, 1339.9 701.7, 1585.0 890.0" marker-end="url(#arrowRed)"/><path class="edgeP" d="M 1045.0 975.0 C 929.3 760.5, 821.3 582.0, 685.0 380.0" marker-end="url(#arrowGreen)"/><path class="edgeN" d="M 685.0 380.0 C 821.3 582.0, 929.3 760.5, 1045.0 975.0" marker-end="url(#arrowRed)"/><path class="edgeP" d="M 1135.0 1060.0 C 1115.4 820.4, 1088.4 616.4, 1045.0 380.0" marker-end="url(#arrowGreen)"/><path class="edgeN" d="M 1045.0 380.0 C 1088.4 616.4, 1115.4 820.4, 1135.0 1060.0" marker-end="url(#arrowRed)"/><path class="edgeP" d="M 955.0 1145.0 C 903.6 903.9, 849.6 699.9, 775.0 465.0" marker-end="url(#arrowGreen)"/><path class="edgeN" d="M 775.0 465.0 C 849.6 699.9, 903.6 903.9, 955.0 1145.0" marker-end="url(#arrowRed)"/><path class="edgeP" d="M 505.0 380.0 C 588.2 651.7, 669.2 881.2, 775.0 1145.0" marker-end="url(#arrowGreen)"/><path class="edgeN" d="M 775.0 1145.0 C 669.2 881.2, 588.2 651.7, 505.0 380.0" marker-end="url(#arrowRed)"/><g class="node" transform="translate(595.0,40.0)"><circle r="14"/><text class="a" text-anchor="middle" dy="-20">अ</text><text class="b" text-anchor="middle" dy="-4">a</text></g><g class="node" transform="translate(775.0,40.0)"><circle r="14"/><text class="a" text-anchor="middle" dy="-20">इ</text><text class="b" text-anchor="middle" dy="-4">i</text></g><g class="node" transform="translate(955.0,40.0)"><circle r="14"/><text class="a" text-anchor="middle" dy="-20">उ</text><text class="b" text-anchor="middle" dy="-4">u</text></g><g class="node" transform="translate(1135.0,40.0)"><circle r="14"/><text class="a" text-anchor="middle" dy="-20">ण्</text><text class="b" text-anchor="middle" dy="-4">Ṇ</text></g><g class="node" transform="translate(685.0,125.0)"><circle r="14"/><text class="a" text-anchor="middle" dy="-20">ऋ</text><text class="b" text-anchor="middle" dy="-4">ṛ</text></g><g class="node" transform="translate(865.0,125.0)"><circle r="14"/><text class="a" text-anchor="middle" dy="-20">ऌ</text><text class="b" text-anchor="middle" dy="-4">ḷ</text></g><g class="node" transform="translate(1045.0,125.0)"><circle r="14"/><text class="a" text-anchor="middle" dy="-20">क्</text><text class="b" text-anchor="middle" dy="-4">K</text></g><g class="node" transform="translate(685.0,210.0)"><circle r="14"/><text class="a" text-anchor="middle" dy="-20">ए</text><text class="b" text-anchor="middle" dy="-4">e</text></g><g class="node" transform="translate(865.0,210.0)"><circle r="14"/><text class="a" text-anchor="middle" dy="-20">ओ</text><text class="b" text-anchor="middle" dy="-4">o</text></g><g class="node" transform="translate(1045.0,210.0)"><circle r="14"/><text class="a" text-anchor="middle" dy="-20">ङ्</text><text class="b" text-anchor="middle" dy="-4">Ṅ</text></g><g class="node" transform="translate(685.0,295.0)"><circle r="14"/><text class="a" text-anchor="middle" dy="-20">ऐ</text><text class="b" text-anchor="middle" dy="-4">ai</text></g><g class="node" transform="translate(865.0,295.0)"><circle r="14"/><text class="a" text-anchor="middle" dy="-20">औ</text><text class="b" text-anchor="middle" dy="-4">au</text></g><g class="node" transform="translate(1045.0,295.0)"><circle r="14"/><text class="a" text-anchor="middle" dy="-20">च्</text><text class="b" text-anchor="middle" dy="-4">C</text></g><g class="node" transform="translate(505.0,380.0)"><circle r="14"/><text class="a" text-anchor="middle" dy="-20">ह</text><text class="b" text-anchor="middle" dy="-4">ha</text></g><g class="node" transform="translate(685.0,380.0)"><circle r="14"/><text class="a" text-anchor="middle" dy="-20">य</text><text class="b" text-anchor="middle" dy="-4">ya</text></g><g class="node" transform="translate(865.0,380.0)"><circle r="14"/><text class="a" text-anchor="middle" dy="-20">व</text><text class="b" text-anchor="middle" dy="-4">va</text></g><g class="node" transform="translate(1045.0,380.0)"><circle r="14"/><text class="a" text-anchor="middle" dy="-20">र</text><text class="b" text-anchor="middle" dy="-4">ra</text></g><g class="node" transform="translate(1225.0,380.0)"><circle r="14"/><text class="a" text-anchor="middle" dy="-20">ट्</text><text class="b" text-anchor="middle" dy="-4">Ṭ</text></g><g class="node" transform="translate(775.0,465.0)"><circle r="14"/><text class="a" text-anchor="middle" dy="-20">ल</text><text class="b" text-anchor="middle" dy="-4">la</text></g><g class="node" transform="translate(955.0,465.0)"><circle r="14"/><text class="a" text-anchor="middle" dy="-20">ण्</text><text class="b" text-anchor="middle" dy="-4">Ṇ</text></g><g class="node" transform="translate(415.0,550.0)"><circle r="14"/><text class="a" text-anchor="middle" dy="-20">ञ</text><text class="b" text-anchor="middle" dy="-4">ña</text></g><g class="node" transform="translate(595.0,550.0)"><circle r="14"/><text class="a" text-anchor="middle" dy="-20">म</text><text class="b" text-anchor="middle" dy="-4">ma</text></g><g class="node" transform="translate(775.0,550.0)"><circle r="14"/><text class="a" text-anchor="middle" dy="-20">ङ</text><text class="b" text-anchor="middle" dy="-4">ṅa</text></g><g class="node" transform="translate(955.0,550.0)"><circle r="14"/><text class="a" text-anchor="middle" dy="-20">ण</text><text class="b" text-anchor="middle" dy="-4">ṇa</text></g><g class="node" transform="translate(1135.0,550.0)"><circle r="14"/><text class="a" text-anchor="middle" dy="-20">न</text><text class="b" text-anchor="middle" dy="-4">na</text></g><g class="node" transform="translate(1315.0,550.0)"><circle r="14"/><text class="a" text-anchor="middle" dy="-20">म्</text><text class="b" text-anchor="middle" dy="-4">M</text></g><g class="node" transform="translate(685.0,635.0)"><circle r="14"/><text class="a" text-anchor="middle" dy="-20">झ</text><text class="b" text-anchor="middle" dy="-4">jha</text></g><g class="node" transform="translate(865.0,635.0)"><circle r="14"/><text class="a" text-anchor="middle" dy="-20">भ</text><text class="b" text-anchor="middle" dy="-4">bha</text></g><g class="node" transform="translate(1045.0,635.0)"><circle r="14"/><text class="a" text-anchor="middle" dy="-20">ञ्</text><text class="b" text-anchor="middle" dy="-4">Ñ</text></g><g class="node" transform="translate(595.0,720.0)"><circle r="14"/><text class="a" text-anchor="middle" dy="-20">घ</text><text class="b" text-anchor="middle" dy="-4">gha</text></g><g class="node" transform="translate(775.0,720.0)"><circle r="14"/><text class="a" text-anchor="middle" dy="-20">ढ</text><text class="b" text-anchor="middle" dy="-4">ḍha</text></g><g class="node" transform="translate(955.0,720.0)"><circle r="14"/><text class="a" text-anchor="middle" dy="-20">ध</text><text class="b" text-anchor="middle" dy="-4">dha</text></g><g class="node" transform="translate(1135.0,720.0)"><circle r="14"/><text class="a" text-anchor="middle" dy="-20">ष्</text><text class="b" text-anchor="middle" dy="-4">Ṣ</text></g><g class="node" transform="translate(415.0,805.0)"><circle r="14"/><text class="a" text-anchor="middle" dy="-20">ज</text><text class="b" text-anchor="middle" dy="-4">ja</text></g><g class="node" transform="translate(595.0,805.0)"><circle r="14"/><text class="a" text-anchor="middle" dy="-20">ब</text><text class="b" text-anchor="middle" dy="-4">ba</text></g><g class="node" transform="translate(775.0,805.0)"><circle r="14"/><text class="a" text-anchor="middle" dy="-20">ग</text><text class="b" text-anchor="middle" dy="-4">ga</text></g><g class="node" transform="translate(955.0,805.0)"><circle r="14"/><text class="a" text-anchor="middle" dy="-20">ड</text><text class="b" text-anchor="middle" dy="-4">ḍa</text></g><g class="node" transform="translate(1135.0,805.0)"><circle r="14"/><text class="a" text-anchor="middle" dy="-20">द</text><text class="b" text-anchor="middle" dy="-4">da</text></g><g class="node" transform="translate(1315.0,805.0)"><circle r="14"/><text class="a" text-anchor="middle" dy="-20">श्</text><text class="b" text-anchor="middle" dy="-4">Ś</text></g><g class="node" transform="translate(145.0,890.0)"><circle r="14"/><text class="a" text-anchor="middle" dy="-20">ख</text><text class="b" text-anchor="middle" dy="-4">kha</text></g><g class="node" transform="translate(325.0,890.0)"><circle r="14"/><text class="a" text-anchor="middle" dy="-20">फ</text><text class="b" text-anchor="middle" dy="-4">pha</text></g><g class="node" transform="translate(505.0,890.0)"><circle r="14"/><text class="a" text-anchor="middle" dy="-20">छ</text><text class="b" text-anchor="middle" dy="-4">cha</text></g><g class="node" transform="translate(685.0,890.0)"><circle r="14"/><text class="a" text-anchor="middle" dy="-20">ठ</text><text class="b" text-anchor="middle" dy="-4">ṭha</text></g><g class="node" transform="translate(865.0,890.0)"><circle r="14"/><text class="a" text-anchor="middle" dy="-20">थ</text><text class="b" text-anchor="middle" dy="-4">tha</text></g><g class="node" transform="translate(1045.0,890.0)"><circle r="14"/><text class="a" text-anchor="middle" dy="-20">च</text><text class="b" text-anchor="middle" dy="-4">ca</text></g><g class="node" transform="translate(1225.0,890.0)"><circle r="14"/><text class="a" text-anchor="middle" dy="-20">ट</text><text class="b" text-anchor="middle" dy="-4">ṭa</text></g><g class="node" transform="translate(1405.0,890.0)"><circle r="14"/><text class="a" text-anchor="middle" dy="-20">त</text><text class="b" text-anchor="middle" dy="-4">ta</text></g><g class="node" transform="translate(1585.0,890.0)"><circle r="14"/><text class="a" text-anchor="middle" dy="-20">व्</text><text class="b" text-anchor="middle" dy="-4">V</text></g><g class="node" transform="translate(685.0,975.0)"><circle r="14"/><text class="a" text-anchor="middle" dy="-20">क</text><text class="b" text-anchor="middle" dy="-4">ka</text></g><g class="node" transform="translate(865.0,975.0)"><circle r="14"/><text class="a" text-anchor="middle" dy="-20">प</text><text class="b" text-anchor="middle" dy="-4">pa</text></g><g class="node" transform="translate(1045.0,975.0)"><circle r="14"/><text class="a" text-anchor="middle" dy="-20">य्</text><text class="b" text-anchor="middle" dy="-4">Y</text></g><g class="node" transform="translate(595.0,1060.0)"><circle r="14"/><text class="a" text-anchor="middle" dy="-20">श</text><text class="b" text-anchor="middle" dy="-4">śa</text></g><g class="node" transform="translate(775.0,1060.0)"><circle r="14"/><text class="a" text-anchor="middle" dy="-20">ष</text><text class="b" text-anchor="middle" dy="-4">ṣa</text></g><g class="node" transform="translate(955.0,1060.0)"><circle r="14"/><text class="a" text-anchor="middle" dy="-20">स</text><text class="b" text-anchor="middle" dy="-4">sa</text></g><g class="node" transform="translate(1135.0,1060.0)"><circle r="14"/><text class="a" text-anchor="middle" dy="-20">र्</text><text class="b" text-anchor="middle" dy="-4">R</text></g><g class="node" transform="translate(775.0,1145.0)"><circle r="14"/><text class="a" text-anchor="middle" dy="-20">ह</text><text class="b" text-anchor="middle" dy="-4">ha</text></g><g class="node" transform="translate(955.0,1145.0)"><circle r="14"/><text class="a" text-anchor="middle" dy="-20">ळ</text><text class="b" text-anchor="middle" dy="-4">L</text></g><ellipse cx="865.0" cy="635.0" rx="230" ry="150" fill="rgba(96,165,250,0.08)"/><text class="legend" x="865.0" y="485.0" text-anchor="middle">Interaction Zone</text><path class="edgeP" d="M 685.0 625.0 C 745.0 575.0, 805.0 595.0, 855.0 625.0" marker-end="url(#arrowGreen)"/><path class="edgeN" d="M 1045.0 645.0 C 985.0 695.0, 925.0 675.0, 875.0 645.0" marker-end="url(#arrowRed)"/><polygon class="star" points="845,614 848.19,621.59 855.45,621.59 849.51,626.32 851.71,633.8 845,629.95 838.29,633.8 840.49,626.32 834.55,621.59 841.81,621.59"/><polygon class="star" points="889,638 892.19,645.59 899.45,645.59 893.51,650.32 895.71,657.8 889,653.95 882.29,657.8 884.49,650.32 878.55,645.59 885.81,645.59"/><path class="field" d="M 645.0 635.0 C 725.0 565.0, 805.0 565.0, 885.0 635.0"/><path class="field" d="M 645.0 635.0 C 725.0 705.0, 805.0 705.0, 885.0 635.0"/><path class="field" d="M 1085.0 635.0 C 1005.0 565.0, 925.0 565.0, 845.0 635.0"/><path class="field" d="M 1085.0 635.0 C 1005.0 705.0, 925.0 705.0, 845.0 635.0"/>
  <g transform="translate(80,640)">
    <rect x="0" y="-20" width="1120" height="60" rx="10" fill="#f9fafb" stroke="#e5e7eb"/>
    <line x1="20" y1="10" x2="60" y2="10" class="edgeP" marker-end="url(#arrowGreen)"/>
    <text class="legend" x="70" y="15">Positive flow (+)</text>

    <line x1="230" y1="10" x2="270" y2="10" class="edgeN" marker-end="url(#arrowRed)"/>
    <text class="legend" x="280" y="15">Negative flow (−)</text>

    <path class="field" d="M 470 10 C 500 -10, 540 -10, 570 10"/>
    <text class="legend" x="580" y="15">Fields (radiative waves)</text>

    <polygon class="star" transform="translate(820,10)" points="0,-8 2.3,-2.5 7.6,-2.5 3.3,1.0 5,6.5 0,3.6 -5,6.5 -3.3,1.0 -7.6,-2.5 -2.3,-2.5"/>
    <text class="legend" x="840" y="15">Particles (localized)</text>

    <text class='subtitle' x='1000' y='15' text-anchor='end'>Edge offsets shown for clarity</text>
  </g>
</svg>
