<svg xmlns="http://www.w3.org/2000/svg" width="1280" height="720" viewBox="0 0 1280 720">
  <defs>
    <marker id="arrowGreen" viewBox="0 0 10 10" refX="10" refY="5" markerWidth="8" markerHeight="8" orient="auto-start-reverse">
      <path d="M0 0 L10 5 L0 10Z" fill="#16a34a"/>
    </marker>
    <marker id="arrowRed" viewBox="0 0 10 10" refX="10" refY="5" markerWidth="8" markerHeight="8" orient="auto-start-reverse">
      <path d="M0 0 L10 5 L0 10Z" fill="#dc2626"/>
    </marker>
    <style>
      .title{font:700 26px/1.2 system-ui,-apple-system,Segoe UI,Roboto,sans-serif;fill:#111827}
      .subtitle{font:600 14px/1.2 system-ui;fill:#6b7280}
      .legend{font:600 13px/1.2 system-ui;fill:#111827}
      .panel{fill:#ffffff;stroke:#e5e7eb;stroke-width:1}
      .node text.a{font:700 12px ui-sans-serif;fill:#111827}
      .node text.b{font:600 11px ui-sans-serif;fill:#6b7280}
      .node circle{fill:#fff;stroke:#111827;stroke-width:1.1}
      .edgeP{stroke:#16a34a;fill:none;stroke-width:1.8;stroke-dasharray:6 8;animation:flowP 2.4s linear infinite}
      .edgeN{stroke:#dc2626;fill:none;stroke-width:1.8;stroke-dasharray:6 8;animation:flowN 2.4s linear infinite}
      .field{stroke:#2563eb;fill:none;stroke-width:2;stroke-dasharray:10 10;opacity:.7;animation:wave 3s linear infinite}
      .fieldHL{stroke:#2563eb;fill:none;stroke-width:4.2;opacity:.6}
      .star{fill:#f59e0b;stroke:#00000080;stroke-width:.6;animation:twinkle 1.8s ease-in-out infinite; transform-box: fill-box; transform-origin: center}
      @keyframes flowP{from{stroke-dashoffset:0}to{stroke-dashoffset:-28}}
      @keyframes flowN{from{stroke-dashoffset:0}to{stroke-dashoffset: 28}}
      @keyframes wave {from{stroke-dashoffset:0}to{stroke-dashoffset:-80}}
      @keyframes twinkle{0%,100%{opacity:.9;transform:scale(1)}50%{opacity:1;transform:scale(1.15)}}
    </style>
  </defs>
  <rect x="0" y="0" width="1280" height="720" fill="#ffffff"/>
<text class="title" x="640.0" y="60" text-anchor="middle">Param Tatva: Particle &amp; Field Generation from ± Flows</text><text class="subtitle" x="640.0" y="86" text-anchor="middle">Positive (green) meets Negative (red) → particles (stars) &amp; fields (waves)</text><rect class="panel" x="305.0" y="154.0" width="600.0" height="68.0" rx="12"/><rect class="panel" x="395.0" y="239.0" width="420.0" height="68.0" rx="12"/><rect class="panel" x="395.0" y="324.0" width="420.0" height="68.0" rx="12"/><rect class="panel" x="395.0" y="409.0" width="420.0" height="68.0" rx="12"/><rect class="panel" x="215.0" y="494.0" width="780.0" height="68.0" rx="12"/><rect class="panel" x="485.0" y="579.0" width="240.0" height="68.0" rx="12"/><rect class="panel" x="125.0" y="664.0" width="960.0" height="68.0" rx="12"/><rect class="panel" x="395.0" y="749.0" width="420.0" height="68.0" rx="12"/><rect class="panel" x="305.0" y="834.0" width="600.0" height="68.0" rx="12"/><rect class="panel" x="125.0" y="919.0" width="960.0" height="68.0" rx="12"/><rect class="panel" x="-145.0" y="1004.0" width="1500.0" height="68.0" rx="12"/><rect class="panel" x="395.0" y="1089.0" width="420.0" height="68.0" rx="12"/><rect class="panel" x="305.0" y="1174.0" width="600.0" height="68.0" rx="12"/><rect class="panel" x="485.0" y="1259.0" width="240.0" height="68.0" rx="12"/><path class="edgeP" d="M 335.0 180.0 C 398.0 192.0, 452.0 192.0, 515.0 180.0" marker-end="url(#arrowGreen)"/><path class="edgeP" d="M 515.0 180.0 C 578.0 192.0, 632.0 192.0, 695.0 180.0" marker-end="url(#arrowGreen)"/><path class="edgeP" d="M 695.0 180.0 C 758.0 192.0, 812.0 192.0, 875.0 180.0" marker-end="url(#arrowGreen)"/><path class="edgeN" d="M 875.0 180.0 C 812.0 192.0, 758.0 192.0, 695.0 180.0" marker-end="url(#arrowRed)"/><path class="edgeN" d="M 695.0 180.0 C 632.0 192.0, 578.0 192.0, 515.0 180.0" marker-end="url(#arrowRed)"/><path class="edgeN" d="M 515.0 180.0 C 452.0 192.0, 398.0 192.0, 335.0 180.0" marker-end="url(#arrowRed)"/><path class="edgeP" d="M 425.0 265.0 C 488.0 277.0, 542.0 277.0, 605.0 265.0" marker-end="url(#arrowGreen)"/><path class="edgeP" d="M 605.0 265.0 C 668.0 277.0, 722.0 277.0, 785.0 265.0" marker-end="url(#arrowGreen)"/><path class="edgeN" d="M 785.0 265.0 C 722.0 277.0, 668.0 277.0, 605.0 265.0" marker-end="url(#arrowRed)"/><path class="edgeN" d="M 605.0 265.0 C 542.0 277.0, 488.0 277.0, 425.0 265.0" marker-end="url(#arrowRed)"/><path class="edgeP" d="M 425.0 350.0 C 488.0 362.0, 542.0 362.0, 605.0 350.0" marker-end="url(#arrowGreen)"/><path class="edgeP" d="M 605.0 350.0 C 668.0 362.0, 722.0 362.0, 785.0 350.0" marker-end="url(#arrowGreen)"/><path class="edgeN" d="M 785.0 350.0 C 722.0 362.0, 668.0 362.0, 605.0 350.0" marker-end="url(#arrowRed)"/><path class="edgeN" d="M 605.0 350.0 C 542.0 362.0, 488.0 362.0, 425.0 350.0" marker-end="url(#arrowRed)"/><path class="edgeP" d="M 425.0 435.0 C 488.0 447.0, 542.0 447.0, 605.0 435.0" marker-end="url(#arrowGreen)"/><path class="edgeP" d="M 605.0 435.0 C 668.0 447.0, 722.0 447.0, 785.0 435.0" marker-end="url(#arrowGreen)"/><path class="edgeN" d="M 785.0 435.0 C 722.0 447.0, 668.0 447.0, 605.0 435.0" marker-end="url(#arrowRed)"/><path class="edgeN" d="M 605.0 435.0 C 542.0 447.0, 488.0 447.0, 425.0 435.0" marker-end="url(#arrowRed)"/><path class="edgeP" d="M 245.0 520.0 C 308.0 532.0, 362.0 532.0, 425.0 520.0" marker-end="url(#arrowGreen)"/><path class="edgeP" d="M 425.0 520.0 C 488.0 532.0, 542.0 532.0, 605.0 520.0" marker-end="url(#arrowGreen)"/><path class="edgeP" d="M 605.0 520.0 C 668.0 532.0, 722.0 532.0, 785.0 520.0" marker-end="url(#arrowGreen)"/><path class="edgeP" d="M 785.0 520.0 C 848.0 532.0, 902.0 532.0, 965.0 520.0" marker-end="url(#arrowGreen)"/><path class="edgeN" d="M 965.0 520.0 C 902.0 532.0, 848.0 532.0, 785.0 520.0" marker-end="url(#arrowRed)"/><path class="edgeN" d="M 785.0 520.0 C 722.0 532.0, 668.0 532.0, 605.0 520.0" marker-end="url(#arrowRed)"/><path class="edgeN" d="M 605.0 520.0 C 542.0 532.0, 488.0 532.0, 425.0 520.0" marker-end="url(#arrowRed)"/><path class="edgeN" d="M 425.0 520.0 C 362.0 532.0, 308.0 532.0, 245.0 520.0" marker-end="url(#arrowRed)"/><path class="edgeP" d="M 515.0 605.0 C 578.0 617.0, 632.0 617.0, 695.0 605.0" marker-end="url(#arrowGreen)"/><path class="edgeN" d="M 695.0 605.0 C 632.0 617.0, 578.0 617.0, 515.0 605.0" marker-end="url(#arrowRed)"/><path class="edgeP" d="M 155.0 690.0 C 218.0 702.0, 272.0 702.0, 335.0 690.0" marker-end="url(#arrowGreen)"/><path class="edgeP" d="M 335.0 690.0 C 398.0 702.0, 452.0 702.0, 515.0 690.0" marker-end="url(#arrowGreen)"/><path class="edgeP" d="M 515.0 690.0 C 578.0 702.0, 632.0 702.0, 695.0 690.0" marker-end="url(#arrowGreen)"/><path class="edgeP" d="M 695.0 690.0 C 758.0 702.0, 812.0 702.0, 875.0 690.0" marker-end="url(#arrowGreen)"/><path class="edgeP" d="M 875.0 690.0 C 938.0 702.0, 992.0 702.0, 1055.0 690.0" marker-end="url(#arrowGreen)"/><path class="edgeN" d="M 1055.0 690.0 C 992.0 702.0, 938.0 702.0, 875.0 690.0" marker-end="url(#arrowRed)"/><path class="edgeN" d="M 875.0 690.0 C 812.0 702.0, 758.0 702.0, 695.0 690.0" marker-end="url(#arrowRed)"/><path class="edgeN" d="M 695.0 690.0 C 632.0 702.0, 578.0 702.0, 515.0 690.0" marker-end="url(#arrowRed)"/><path class="edgeN" d="M 515.0 690.0 C 452.0 702.0, 398.0 702.0, 335.0 690.0" marker-end="url(#arrowRed)"/><path class="edgeN" d="M 335.0 690.0 C 272.0 702.0, 218.0 702.0, 155.0 690.0" marker-end="url(#arrowRed)"/><path class="edgeP" d="M 425.0 775.0 C 488.0 787.0, 542.0 787.0, 605.0 775.0" marker-end="url(#arrowGreen)"/><path class="edgeP" d="M 605.0 775.0 C 668.0 787.0, 722.0 787.0, 785.0 775.0" marker-end="url(#arrowGreen)"/><path class="edgeN" d="M 785.0 775.0 C 722.0 787.0, 668.0 787.0, 605.0 775.0" marker-end="url(#arrowRed)"/><path class="edgeN" d="M 605.0 775.0 C 542.0 787.0, 488.0 787.0, 425.0 775.0" marker-end="url(#arrowRed)"/><path class="edgeP" d="M 335.0 860.0 C 398.0 872.0, 452.0 872.0, 515.0 860.0" marker-end="url(#arrowGreen)"/><path class="edgeP" d="M 515.0 860.0 C 578.0 872.0, 632.0 872.0, 695.0 860.0" marker-end="url(#arrowGreen)"/><path class="edgeP" d="M 695.0 860.0 C 758.0 872.0, 812.0 872.0, 875.0 860.0" marker-end="url(#arrowGreen)"/><path class="edgeN" d="M 875.0 860.0 C 812.0 872.0, 758.0 872.0, 695.0 860.0" marker-end="url(#arrowRed)"/><path class="edgeN" d="M 695.0 860.0 C 632.0 872.0, 578.0 872.0, 515.0 860.0" marker-end="url(#arrowRed)"/><path class="edgeN" d="M 515.0 860.0 C 452.0 872.0, 398.0 872.0, 335.0 860.0" marker-end="url(#arrowRed)"/><path class="edgeP" d="M 155.0 945.0 C 218.0 957.0, 272.0 957.0, 335.0 945.0" marker-end="url(#arrowGreen)"/><path class="edgeP" d="M 335.0 945.0 C 398.0 957.0, 452.0 957.0, 515.0 945.0" marker-end="url(#arrowGreen)"/><path class="edgeP" d="M 515.0 945.0 C 578.0 957.0, 632.0 957.0, 695.0 945.0" marker-end="url(#arrowGreen)"/><path class="edgeP" d="M 695.0 945.0 C 758.0 957.0, 812.0 957.0, 875.0 945.0" marker-end="url(#arrowGreen)"/><path class="edgeP" d="M 875.0 945.0 C 938.0 957.0, 992.0 957.0, 1055.0 945.0" marker-end="url(#arrowGreen)"/><path class="edgeN" d="M 1055.0 945.0 C 992.0 957.0, 938.0 957.0, 875.0 945.0" marker-end="url(#arrowRed)"/><path class="edgeN" d="M 875.0 945.0 C 812.0 957.0, 758.0 957.0, 695.0 945.0" marker-end="url(#arrowRed)"/><path class="edgeN" d="M 695.0 945.0 C 632.0 957.0, 578.0 957.0, 515.0 945.0" marker-end="url(#arrowRed)"/><path class="edgeN" d="M 515.0 945.0 C 452.0 957.0, 398.0 957.0, 335.0 945.0" marker-end="url(#arrowRed)"/><path class="edgeN" d="M 335.0 945.0 C 272.0 957.0, 218.0 957.0, 155.0 945.0" marker-end="url(#arrowRed)"/><path class="edgeP" d="M -115.0 1030.0 C -52.0 1042.0, 2.0 1042.0, 65.0 1030.0" marker-end="url(#arrowGreen)"/><path class="edgeP" d="M 65.0 1030.0 C 128.0 1042.0, 182.0 1042.0, 245.0 1030.0" marker-end="url(#arrowGreen)"/><path class="edgeP" d="M 245.0 1030.0 C 308.0 1042.0, 362.0 1042.0, 425.0 1030.0" marker-end="url(#arrowGreen)"/><path class="edgeP" d="M 425.0 1030.0 C 488.0 1042.0, 542.0 1042.0, 605.0 1030.0" marker-end="url(#arrowGreen)"/><path class="edgeP" d="M 605.0 1030.0 C 668.0 1042.0, 722.0 1042.0, 785.0 1030.0" marker-end="url(#arrowGreen)"/><path class="edgeP" d="M 785.0 1030.0 C 848.0 1042.0, 902.0 1042.0, 965.0 1030.0" marker-end="url(#arrowGreen)"/><path class="edgeP" d="M 965.0 1030.0 C 1028.0 1042.0, 1082.0 1042.0, 1145.0 1030.0" marker-end="url(#arrowGreen)"/><path class="edgeP" d="M 1145.0 1030.0 C 1208.0 1042.0, 1262.0 1042.0, 1325.0 1030.0" marker-end="url(#arrowGreen)"/><path class="edgeN" d="M 1325.0 1030.0 C 1262.0 1042.0, 1208.0 1042.0, 1145.0 1030.0" marker-end="url(#arrowRed)"/><path class="edgeN" d="M 1145.0 1030.0 C 1082.0 1042.0, 1028.0 1042.0, 965.0 1030.0" marker-end="url(#arrowRed)"/><path class="edgeN" d="M 965.0 1030.0 C 902.0 1042.0, 848.0 1042.0, 785.0 1030.0" marker-end="url(#arrowRed)"/><path class="edgeN" d="M 785.0 1030.0 C 722.0 1042.0, 668.0 1042.0, 605.0 1030.0" marker-end="url(#arrowRed)"/><path class="edgeN" d="M 605.0 1030.0 C 542.0 1042.0, 488.0 1042.0, 425.0 1030.0" marker-end="url(#arrowRed)"/><path class="edgeN" d="M 425.0 1030.0 C 362.0 1042.0, 308.0 1042.0, 245.0 1030.0" marker-end="url(#arrowRed)"/><path class="edgeN" d="M 245.0 1030.0 C 182.0 1042.0, 128.0 1042.0, 65.0 1030.0" marker-end="url(#arrowRed)"/><path class="edgeN" d="M 65.0 1030.0 C 2.0 1042.0, -52.0 1042.0, -115.0 1030.0" marker-end="url(#arrowRed)"/><path class="edgeP" d="M 425.0 1115.0 C 488.0 1127.0, 542.0 1127.0, 605.0 1115.0" marker-end="url(#arrowGreen)"/><path class="edgeP" d="M 605.0 1115.0 C 668.0 1127.0, 722.0 1127.0, 785.0 1115.0" marker-end="url(#arrowGreen)"/><path class="edgeN" d="M 785.0 1115.0 C 722.0 1127.0, 668.0 1127.0, 605.0 1115.0" marker-end="url(#arrowRed)"/><path class="edgeN" d="M 605.0 1115.0 C 542.0 1127.0, 488.0 1127.0, 425.0 1115.0" marker-end="url(#arrowRed)"/><path class="edgeP" d="M 335.0 1200.0 C 398.0 1212.0, 452.0 1212.0, 515.0 1200.0" marker-end="url(#arrowGreen)"/><path class="edgeP" d="M 515.0 1200.0 C 578.0 1212.0, 632.0 1212.0, 695.0 1200.0" marker-end="url(#arrowGreen)"/><path class="edgeP" d="M 695.0 1200.0 C 758.0 1212.0, 812.0 1212.0, 875.0 1200.0" marker-end="url(#arrowGreen)"/><path class="edgeN" d="M 875.0 1200.0 C 812.0 1212.0, 758.0 1212.0, 695.0 1200.0" marker-end="url(#arrowRed)"/><path class="edgeN" d="M 695.0 1200.0 C 632.0 1212.0, 578.0 1212.0, 515.0 1200.0" marker-end="url(#arrowRed)"/><path class="edgeN" d="M 515.0 1200.0 C 452.0 1212.0, 398.0 1212.0, 335.0 1200.0" marker-end="url(#arrowRed)"/><path class="edgeP" d="M 515.0 1285.0 C 578.0 1297.0, 632.0 1297.0, 695.0 1285.0" marker-end="url(#arrowGreen)"/><path class="edgeN" d="M 695.0 1285.0 C 632.0 1297.0, 578.0 1297.0, 515.0 1285.0" marker-end="url(#arrowRed)"/><path class="edgeP" d="M 875.0 180.0 C 800.7 354.5, 746.7 507.5, 695.0 690.0" marker-end="url(#arrowGreen)"/><path class="edgeN" d="M 695.0 690.0 C 746.7 507.5, 800.7 354.5, 875.0 180.0" marker-end="url(#arrowRed)"/><path class="edgeP" d="M 785.0 265.0 C 648.0 557.8, 540.0 812.8, 425.0 1115.0" marker-end="url(#arrowGreen)"/><path class="edgeN" d="M 425.0 1115.0 C 540.0 812.8, 648.0 557.8, 785.0 265.0" marker-end="url(#arrowRed)"/><path class="edgeP" d="M 785.0 350.0 C 681.1 461.5, 600.1 563.5, 515.0 690.0" marker-end="url(#arrowGreen)"/><path class="edgeN" d="M 515.0 690.0 C 600.1 563.5, 681.1 461.5, 785.0 350.0" marker-end="url(#arrowRed)"/><path class="edgeP" d="M 785.0 435.0 C 773.0 643.2, 773.0 821.8, 785.0 1030.0" marker-end="url(#arrowGreen)"/><path class="edgeN" d="M 785.0 1030.0 C 773.0 821.8, 773.0 643.2, 785.0 435.0" marker-end="url(#arrowRed)"/><path class="edgeP" d="M 965.0 520.0 C 953.0 698.5, 953.0 851.5, 965.0 1030.0" marker-end="url(#arrowGreen)"/><path class="edgeN" d="M 965.0 1030.0 C 953.0 851.5, 953.0 698.5, 965.0 520.0" marker-end="url(#arrowRed)"/><path class="edgeP" d="M 695.0 605.0 C 683.0 634.8, 683.0 660.2, 695.0 690.0" marker-end="url(#arrowGreen)"/><path class="edgeN" d="M 695.0 690.0 C 683.0 660.2, 683.0 634.8, 695.0 605.0" marker-end="url(#arrowRed)"/><path class="edgeP" d="M 1055.0 690.0 C 803.0 678.0, 587.0 678.0, 335.0 690.0" marker-end="url(#arrowGreen)"/><path class="edgeN" d="M 335.0 690.0 C 587.0 678.0, 803.0 678.0, 1055.0 690.0" marker-end="url(#arrowRed)"/><path class="edgeP" d="M 785.0 775.0 C 566.1 733.4, 377.1 707.9, 155.0 690.0" marker-end="url(#arrowGreen)"/><path class="edgeN" d="M 155.0 690.0 C 377.1 707.9, 566.1 733.4, 785.0 775.0" marker-end="url(#arrowRed)"/><path class="edgeP" d="M 875.0 860.0 C 740.8 970.3, 632.8 1072.3, 515.0 1200.0" marker-end="url(#arrowGreen)"/><path class="edgeN" d="M 515.0 1200.0 C 632.8 1072.3, 740.8 970.3, 875.0 860.0" marker-end="url(#arrowRed)"/><path class="edgeP" d="M 1055.0 945.0 C 799.0 1022.9, 583.0 1099.4, 335.0 1200.0" marker-end="url(#arrowGreen)"/><path class="edgeN" d="M 335.0 1200.0 C 583.0 1099.4, 799.0 1022.9, 1055.0 945.0" marker-end="url(#arrowRed)"/><path class="edgeP" d="M 1325.0 1030.0 C 1079.9 841.7, 863.9 688.7, 605.0 520.0" marker-end="url(#arrowGreen)"/><path class="edgeN" d="M 605.0 520.0 C 863.9 688.7, 1079.9 841.7, 1325.0 1030.0" marker-end="url(#arrowRed)"/><path class="edgeP" d="M 785.0 1115.0 C 669.3 900.5, 561.3 722.0, 425.0 520.0" marker-end="url(#arrowGreen)"/><path class="edgeN" d="M 425.0 520.0 C 561.3 722.0, 669.3 900.5, 785.0 1115.0" marker-end="url(#arrowRed)"/><path class="edgeP" d="M 875.0 1200.0 C 855.4 960.4, 828.4 756.4, 785.0 520.0" marker-end="url(#arrowGreen)"/><path class="edgeN" d="M 785.0 520.0 C 828.4 756.4, 855.4 960.4, 875.0 1200.0" marker-end="url(#arrowRed)"/><path class="edgeP" d="M 695.0 1285.0 C 643.6 1043.9, 589.6 839.9, 515.0 605.0" marker-end="url(#arrowGreen)"/><path class="edgeN" d="M 515.0 605.0 C 589.6 839.9, 643.6 1043.9, 695.0 1285.0" marker-end="url(#arrowRed)"/><path class="edgeP" d="M 245.0 520.0 C 328.2 791.7, 409.2 1021.2, 515.0 1285.0" marker-end="url(#arrowGreen)"/><path class="edgeN" d="M 515.0 1285.0 C 409.2 1021.2, 328.2 791.7, 245.0 520.0" marker-end="url(#arrowRed)"/><g class="node" transform="translate(335.0,180.0)"><circle r="14"/><text class="a" text-anchor="middle" dy="-20">अ</text><text class="b" text-anchor="middle" dy="-4">a</text></g><g class="node" transform="translate(515.0,180.0)"><circle r="14"/><text class="a" text-anchor="middle" dy="-20">इ</text><text class="b" text-anchor="middle" dy="-4">i</text></g><g class="node" transform="translate(695.0,180.0)"><circle r="14"/><text class="a" text-anchor="middle" dy="-20">उ</text><text class="b" text-anchor="middle" dy="-4">u</text></g><g class="node" transform="translate(875.0,180.0)"><circle r="14"/><text class="a" text-anchor="middle" dy="-20">ण्</text><text class="b" text-anchor="middle" dy="-4">Ṇ</text></g><g class="node" transform="translate(425.0,265.0)"><circle r="14"/><text class="a" text-anchor="middle" dy="-20">ऋ</text><text class="b" text-anchor="middle" dy="-4">ṛ</text></g><g class="node" transform="translate(605.0,265.0)"><circle r="14"/><text class="a" text-anchor="middle" dy="-20">ऌ</text><text class="b" text-anchor="middle" dy="-4">ḷ</text></g><g class="node" transform="translate(785.0,265.0)"><circle r="14"/><text class="a" text-anchor="middle" dy="-20">क्</text><text class="b" text-anchor="middle" dy="-4">K</text></g><g class="node" transform="translate(425.0,350.0)"><circle r="14"/><text class="a" text-anchor="middle" dy="-20">ए</text><text class="b" text-anchor="middle" dy="-4">e</text></g><g class="node" transform="translate(605.0,350.0)"><circle r="14"/><text class="a" text-anchor="middle" dy="-20">ओ</text><text class="b" text-anchor="middle" dy="-4">o</text></g><g class="node" transform="translate(785.0,350.0)"><circle r="14"/><text class="a" text-anchor="middle" dy="-20">ङ्</text><text class="b" text-anchor="middle" dy="-4">Ṅ</text></g><g class="node" transform="translate(425.0,435.0)"><circle r="14"/><text class="a" text-anchor="middle" dy="-20">ऐ</text><text class="b" text-anchor="middle" dy="-4">ai</text></g><g class="node" transform="translate(605.0,435.0)"><circle r="14"/><text class="a" text-anchor="middle" dy="-20">औ</text><text class="b" text-anchor="middle" dy="-4">au</text></g><g class="node" transform="translate(785.0,435.0)"><circle r="14"/><text class="a" text-anchor="middle" dy="-20">च्</text><text class="b" text-anchor="middle" dy="-4">C</text></g><g class="node" transform="translate(245.0,520.0)"><circle r="14"/><text class="a" text-anchor="middle" dy="-20">ह</text><text class="b" text-anchor="middle" dy="-4">ha</text></g><g class="node" transform="translate(425.0,520.0)"><circle r="14"/><text class="a" text-anchor="middle" dy="-20">य</text><text class="b" text-anchor="middle" dy="-4">ya</text></g><g class="node" transform="translate(605.0,520.0)"><circle r="14"/><text class="a" text-anchor="middle" dy="-20">व</text><text class="b" text-anchor="middle" dy="-4">va</text></g><g class="node" transform="translate(785.0,520.0)"><circle r="14"/><text class="a" text-anchor="middle" dy="-20">र</text><text class="b" text-anchor="middle" dy="-4">ra</text></g><g class="node" transform="translate(965.0,520.0)"><circle r="14"/><text class="a" text-anchor="middle" dy="-20">ट्</text><text class="b" text-anchor="middle" dy="-4">Ṭ</text></g><g class="node" transform="translate(515.0,605.0)"><circle r="14"/><text class="a" text-anchor="middle" dy="-20">ल</text><text class="b" text-anchor="middle" dy="-4">la</text></g><g class="node" transform="translate(695.0,605.0)"><circle r="14"/><text class="a" text-anchor="middle" dy="-20">ण्</text><text class="b" text-anchor="middle" dy="-4">Ṇ</text></g><g class="node" transform="translate(155.0,690.0)"><circle r="14"/><text class="a" text-anchor="middle" dy="-20">ञ</text><text class="b" text-anchor="middle" dy="-4">ña</text></g><g class="node" transform="translate(335.0,690.0)"><circle r="14"/><text class="a" text-anchor="middle" dy="-20">म</text><text class="b" text-anchor="middle" dy="-4">ma</text></g><g class="node" transform="translate(515.0,690.0)"><circle r="14"/><text class="a" text-anchor="middle" dy="-20">ङ</text><text class="b" text-anchor="middle" dy="-4">ṅa</text></g><g class="node" transform="translate(695.0,690.0)"><circle r="14"/><text class="a" text-anchor="middle" dy="-20">ण</text><text class="b" text-anchor="middle" dy="-4">ṇa</text></g><g class="node" transform="translate(875.0,690.0)"><circle r="14"/><text class="a" text-anchor="middle" dy="-20">न</text><text class="b" text-anchor="middle" dy="-4">na</text></g><g class="node" transform="translate(1055.0,690.0)"><circle r="14"/><text class="a" text-anchor="middle" dy="-20">म्</text><text class="b" text-anchor="middle" dy="-4">M</text></g><g class="node" transform="translate(425.0,775.0)"><circle r="14"/><text class="a" text-anchor="middle" dy="-20">झ</text><text class="b" text-anchor="middle" dy="-4">jha</text></g><g class="node" transform="translate(605.0,775.0)"><circle r="14"/><text class="a" text-anchor="middle" dy="-20">भ</text><text class="b" text-anchor="middle" dy="-4">bha</text></g><g class="node" transform="translate(785.0,775.0)"><circle r="14"/><text class="a" text-anchor="middle" dy="-20">ञ्</text><text class="b" text-anchor="middle" dy="-4">Ñ</text></g><g class="node" transform="translate(335.0,860.0)"><circle r="14"/><text class="a" text-anchor="middle" dy="-20">घ</text><text class="b" text-anchor="middle" dy="-4">gha</text></g><g class="node" transform="translate(515.0,860.0)"><circle r="14"/><text class="a" text-anchor="middle" dy="-20">ढ</text><text class="b" text-anchor="middle" dy="-4">ḍha</text></g><g class="node" transform="translate(695.0,860.0)"><circle r="14"/><text class="a" text-anchor="middle" dy="-20">ध</text><text class="b" text-anchor="middle" dy="-4">dha</text></g><g class="node" transform="translate(875.0,860.0)"><circle r="14"/><text class="a" text-anchor="middle" dy="-20">ष्</text><text class="b" text-anchor="middle" dy="-4">Ṣ</text></g><g class="node" transform="translate(155.0,945.0)"><circle r="14"/><text class="a" text-anchor="middle" dy="-20">ज</text><text class="b" text-anchor="middle" dy="-4">ja</text></g><g class="node" transform="translate(335.0,945.0)"><circle r="14"/><text class="a" text-anchor="middle" dy="-20">ब</text><text class="b" text-anchor="middle" dy="-4">ba</text></g><g class="node" transform="translate(515.0,945.0)"><circle r="14"/><text class="a" text-anchor="middle" dy="-20">ग</text><text class="b" text-anchor="middle" dy="-4">ga</text></g><g class="node" transform="translate(695.0,945.0)"><circle r="14"/><text class="a" text-anchor="middle" dy="-20">ड</text><text class="b" text-anchor="middle" dy="-4">ḍa</text></g><g class="node" transform="translate(875.0,945.0)"><circle r="14"/><text class="a" text-anchor="middle" dy="-20">द</text><text class="b" text-anchor="middle" dy="-4">da</text></g><g class="node" transform="translate(1055.0,945.0)"><circle r="14"/><text class="a" text-anchor="middle" dy="-20">श्</text><text class="b" text-anchor="middle" dy="-4">Ś</text></g><g class="node" transform="translate(-115.0,1030.0)"><circle r="14"/><text class="a" text-anchor="middle" dy="-20">ख</text><text class="b" text-anchor="middle" dy="-4">kha</text></g><g class="node" transform="translate(65.0,1030.0)"><circle r="14"/><text class="a" text-anchor="middle" dy="-20">फ</text><text class="b" text-anchor="middle" dy="-4">pha</text></g><g class="node" transform="translate(245.0,1030.0)"><circle r="14"/><text class="a" text-anchor="middle" dy="-20">छ</text><text class="b" text-anchor="middle" dy="-4">cha</text></g><g class="node" transform="translate(425.0,1030.0)"><circle r="14"/><text class="a" text-anchor="middle" dy="-20">ठ</text><text class="b" text-anchor="middle" dy="-4">ṭha</text></g><g class="node" transform="translate(605.0,1030.0)"><circle r="14"/><text class="a" text-anchor="middle" dy="-20">थ</text><text class="b" text-anchor="middle" dy="-4">tha</text></g><g class="node" transform="translate(785.0,1030.0)"><circle r="14"/><text class="a" text-anchor="middle" dy="-20">च</text><text class="b" text-anchor="middle" dy="-4">ca</text></g><g class="node" transform="translate(965.0,1030.0)"><circle r="14"/><text class="a" text-anchor="middle" dy="-20">ट</text><text class="b" text-anchor="middle" dy="-4">ṭa</text></g><g class="node" transform="translate(1145.0,1030.0)"><circle r="14"/><text class="a" text-anchor="middle" dy="-20">त</text><text class="b" text-anchor="middle" dy="-4">ta</text></g><g class="node" transform="translate(1325.0,1030.0)"><circle r="14"/><text class="a" text-anchor="middle" dy="-20">व्</text><text class="b" text-anchor="middle" dy="-4">V</text></g><g class="node" transform="translate(425.0,1115.0)"><circle r="14"/><text class="a" text-anchor="middle" dy="-20">क</text><text class="b" text-anchor="middle" dy="-4">ka</text></g><g class="node" transform="translate(605.0,1115.0)"><circle r="14"/><text class="a" text-anchor="middle" dy="-20">प</text><text class="b" text-anchor="middle" dy="-4">pa</text></g><g class="node" transform="translate(785.0,1115.0)"><circle r="14"/><text class="a" text-anchor="middle" dy="-20">य्</text><text class="b" text-anchor="middle" dy="-4">Y</text></g><g class="node" transform="translate(335.0,1200.0)"><circle r="14"/><text class="a" text-anchor="middle" dy="-20">श</text><text class="b" text-anchor="middle" dy="-4">śa</text></g><g class="node" transform="translate(515.0,1200.0)"><circle r="14"/><text class="a" text-anchor="middle" dy="-20">ष</text><text class="b" text-anchor="middle" dy="-4">ṣa</text></g><g class="node" transform="translate(695.0,1200.0)"><circle r="14"/><text class="a" text-anchor="middle" dy="-20">स</text><text class="b" text-anchor="middle" dy="-4">sa</text></g><g class="node" transform="translate(875.0,1200.0)"><circle r="14"/><text class="a" text-anchor="middle" dy="-20">र्</text><text class="b" text-anchor="middle" dy="-4">R</text></g><g class="node" transform="translate(515.0,1285.0)"><circle r="14"/><text class="a" text-anchor="middle" dy="-20">ह</text><text class="b" text-anchor="middle" dy="-4">ha</text></g><g class="node" transform="translate(695.0,1285.0)"><circle r="14"/><text class="a" text-anchor="middle" dy="-20">ळ</text><text class="b" text-anchor="middle" dy="-4">L</text></g><ellipse cx="605.0" cy="775.0" rx="230" ry="150" fill="rgba(96,165,250,0.08)"/><text class="legend" x="605.0" y="625.0" text-anchor="middle">Interaction Zone</text><path class="edgeP" d="M 425.0 765.0 C 485.0 715.0, 545.0 735.0, 595.0 765.0" marker-end="url(#arrowGreen)"/><path class="edgeN" d="M 785.0 785.0 C 725.0 835.0, 665.0 815.0, 615.0 785.0" marker-end="url(#arrowRed)"/><polygon class="star" points="585.0,754.0 588.19,761.59 595.45,761.59 589.51,766.32 591.71,773.8 585.0,769.95 578.29,773.8 580.49,766.32 574.55,761.59 581.81,761.59"/><polygon class="star" points="629.0,778.0 632.19,785.59 639.45,785.59 633.51,790.32 635.71,797.8 629.0,793.95 622.29,797.8 624.49,790.32 618.55,785.59 625.81,785.59"/><path class="field" d="M 385.0 775.0 C 465.0 705.0, 545.0 705.0, 625.0 775.0"/><path class="field" d="M 385.0 775.0 C 465.0 845.0, 545.0 845.0, 625.0 775.0"/><path class="field" d="M 825.0 775.0 C 745.0 705.0, 665.0 705.0, 585.0 775.0"/><path class="field" d="M 825.0 775.0 C 745.0 845.0, 665.0 845.0, 585.0 775.0"/>
  <g transform="translate(80,640)">
    <rect x="0" y="-20" width="1120" height="60" rx="10" fill="#f9fafb" stroke="#e5e7eb"/>
    <line x1="20" y1="10" x2="60" y2="10" class="edgeP" marker-end="url(#arrowGreen)"/>
    <text class="legend" x="70" y="15">Positive flow (+)</text>

    <line x1="230" y1="10" x2="270" y2="10" class="edgeN" marker-end="url(#arrowRed)"/>
    <text class="legend" x="280" y="15">Negative flow (−)</text>

    <path class="field" d="M 470 10 C 500 -10, 540 -10, 570 10"/>
    <text class="legend" x="580" y="15">Fields (radiative waves)</text>

    <polygon class="star" transform="translate(820,10)" points="0,-8 2.3,-2.5 7.6,-2.5 3.3,1.0 5,6.5 0,3.6 -5,6.5 -3.3,1.0 -7.6,-2.5 -2.3,-2.5"/>
    <text class="legend" x="840" y="15">Particles (localized)</text>

    <text class='subtitle' x='1000' y='15' text-anchor='end'>Edge offsets shown for clarity</text>
  </g>
</svg>
